<svg width="252" height="80" viewBox="0 0 252 80" fill="none" xmlns="http://www.w3.org/2000/svg">
<g filter="url(#filter0_f_12_729)">
<rect x="12" y="12" width="228" height="56" rx="28" fill="url(#paint0_linear_12_729)"/>
</g>
<path d="M46 48.3333C50.6023 48.3333 54.3333 44.6023 54.3333 40C54.3333 35.3976 50.6023 31.6666 46 31.6666C41.3976 31.6666 37.6666 35.3976 37.6666 40C37.6666 44.6023 41.3976 48.3333 46 48.3333Z" stroke="white" stroke-width="1.66667" stroke-linecap="round" stroke-linejoin="round"/>
<path d="M46 31.6666C43.8602 33.9134 42.6666 36.8972 42.6666 40C42.6666 43.1027 43.8602 46.0865 46 48.3333C48.1398 46.0865 49.3333 43.1027 49.3333 40C49.3333 36.8972 48.1398 33.9134 46 31.6666Z" stroke="white" stroke-width="1.66667" stroke-linecap="round" stroke-linejoin="round"/>
<path d="M37.6666 40H54.3333" stroke="white" stroke-width="1.66667" stroke-linecap="round" stroke-linejoin="round"/>
<defs>
<filter id="filter0_f_12_729" x="0" y="0" width="252" height="80" filterUnits="userSpaceOnUse" color-interpolation-filters="sRGB">
<feFlood flood-opacity="0" result="BackgroundImageFix"/>
<feBlend mode="normal" in="SourceGraphic" in2="BackgroundImageFix" result="shape"/>
<feGaussianBlur stdDeviation="6" result="effect1_foregroundBlur_12_729"/>
</filter>
<linearGradient id="paint0_linear_12_729" x1="12" y1="40" x2="240" y2="40" gradientUnits="userSpaceOnUse">
<stop offset="1" stop-color="#F999C3" stop-opacity="0.35"/>
</linearGradient>
</defs>
</svg>
