<svg width="33" height="33" viewBox="0 0 33 33" fill="none" xmlns="http://www.w3.org/2000/svg">
<path d="M21.5538 17.8599L23.5738 29.2279C23.5965 29.3617 23.5777 29.4993 23.52 29.6222C23.4623 29.7451 23.3685 29.8475 23.2511 29.9156C23.1337 29.9837 22.9982 30.0144 22.8629 30.0035C22.7276 29.9926 22.5988 29.9406 22.4938 29.8545L17.7205 26.2719C17.4901 26.0997 17.2101 26.0067 16.9225 26.0067C16.6349 26.0067 16.3549 26.0997 16.1245 26.2719L11.3432 29.8532C11.2383 29.9391 11.1097 29.991 10.9745 30.0019C10.8393 30.0128 10.7041 29.9823 10.5867 29.9144C10.4694 29.8464 10.3755 29.7443 10.3177 29.6216C10.2599 29.499 10.2409 29.3616 10.2632 29.2279L12.2818 17.8599" stroke="white" stroke-width="2.66667" stroke-linecap="round" stroke-linejoin="round"/>
<path d="M16.9178 19.3398C21.3361 19.3398 24.9178 15.7581 24.9178 11.3398C24.9178 6.92157 21.3361 3.33984 16.9178 3.33984C12.4996 3.33984 8.91785 6.92157 8.91785 11.3398C8.91785 15.7581 12.4996 19.3398 16.9178 19.3398Z" stroke="white" stroke-width="2.66667" stroke-linecap="round" stroke-linejoin="round"/>
</svg>
