<svg width="80" height="80" viewBox="0 0 80 80" fill="none" xmlns="http://www.w3.org/2000/svg">
<g clip-path="url(#clip0_136_123)">
<g clip-path="url(#clip1_136_123)">
<path fill-rule="evenodd" clip-rule="evenodd" d="M68.8885 72.2214L39.9999 80L11.1108 72.2214L4.44434 0H75.5557L68.8885 72.2214Z" fill="#0288D1"/>
<path fill-rule="evenodd" clip-rule="evenodd" d="M39.9995 5.84814V73.7944L40.065 73.8121L63.4432 67.5172L68.8396 5.84814H39.9995Z" fill="#3C9CD7"/>
<path fill-rule="evenodd" clip-rule="evenodd" d="M39.974 23.9075L19.2972 32.5187L19.9829 41.0445L39.974 32.4971L61.239 23.4052L62.1207 14.6838L39.974 23.9075Z" fill="white"/>
<mask id="mask0_136_123" style="mask-type:luminance" maskUnits="userSpaceOnUse" x="19" y="23" width="22" height="19">
<path fill-rule="evenodd" clip-rule="evenodd" d="M19.2612 23.8762H40.01V41.0852H19.2612V23.8762Z" fill="url(#paint0_linear_136_123)"/>
</mask>
<g mask="url(#mask0_136_123)">
<path fill-rule="evenodd" clip-rule="evenodd" d="M19.2972 32.5228L19.9829 41.0486L39.9737 32.5012V23.9116L19.2972 32.5228Z" fill="url(#paint1_linear_136_123)"/>
</g>
<mask id="mask1_136_123" style="mask-type:luminance" maskUnits="userSpaceOnUse" x="39" y="14" width="24" height="19">
<path fill-rule="evenodd" clip-rule="evenodd" d="M39.938 14.6543H62.1567V32.5394H39.938V14.6543Z" fill="url(#paint2_linear_136_123)"/>
</mask>
<g mask="url(#mask1_136_123)">
<path fill-rule="evenodd" clip-rule="evenodd" d="M62.1207 14.6895L39.974 23.9129V32.5025L61.239 23.4106L62.1207 14.6895Z" fill="url(#paint3_linear_136_123)"/>
</g>
<path fill-rule="evenodd" clip-rule="evenodd" d="M19.3289 32.5186L20.0148 41.0443L50.6882 41.142L50.0021 52.5096L39.9089 55.3512L30.2061 52.9013L29.6181 45.8455H20.6028L21.7788 59.467L40.0068 64.8567L58.1359 59.5647L60.4879 32.5186H19.3289Z" fill="url(#paint4_linear_136_123)"/>
<path fill-rule="evenodd" clip-rule="evenodd" d="M39.974 32.5186H19.2975L19.9832 41.0443L39.974 41.1082V32.5186ZM39.974 55.3239L39.8761 55.3512L30.1748 52.9013L29.5868 45.8455H20.5716L21.7474 59.467L39.974 64.8567V55.3239Z" fill="black" fill-opacity="0.05098"/>
<path fill-rule="evenodd" clip-rule="evenodd" d="M17.4353 14.6838H62.1207L61.2389 23.4052H18.5131L17.4353 14.6838Z" fill="url(#paint5_linear_136_123)"/>
<path fill-rule="evenodd" clip-rule="evenodd" d="M39.974 14.6838H17.4353L18.5131 23.4052H39.974V14.6838Z" fill="black" fill-opacity="0.05098"/>
</g>
</g>
<defs>
<linearGradient id="paint0_linear_136_123" x1="29.6355" y1="23.9122" x2="29.6355" y2="41.0492" gradientUnits="userSpaceOnUse">
<stop stop-color="white" stop-opacity="0"/>
<stop offset="0.388" stop-color="white"/>
<stop offset="1" stop-color="white" stop-opacity="0.831"/>
</linearGradient>
<linearGradient id="paint1_linear_136_123" x1="29.6355" y1="23.9116" x2="29.6355" y2="41.0486" gradientUnits="userSpaceOnUse">
<stop stop-color="#D1D3D4"/>
<stop offset="0.388" stop-color="#D1D3D4"/>
<stop offset="1" stop-color="#D1D3D4"/>
</linearGradient>
<linearGradient id="paint2_linear_136_123" x1="51.0474" y1="14.6902" x2="51.0474" y2="32.5034" gradientUnits="userSpaceOnUse">
<stop stop-color="white" stop-opacity="0"/>
<stop offset="0.388" stop-color="white"/>
<stop offset="1" stop-color="white" stop-opacity="0.831"/>
</linearGradient>
<linearGradient id="paint3_linear_136_123" x1="51.0474" y1="14.6894" x2="51.0474" y2="32.5025" gradientUnits="userSpaceOnUse">
<stop stop-color="#D1D3D4"/>
<stop offset="0.388" stop-color="#D1D3D4"/>
<stop offset="1" stop-color="#D1D3D4"/>
</linearGradient>
<linearGradient id="paint4_linear_136_123" x1="19.3289" y1="48.6876" x2="60.4879" y2="48.6876" gradientUnits="userSpaceOnUse">
<stop stop-color="#E8E7E5"/>
<stop offset="1" stop-color="white"/>
</linearGradient>
<linearGradient id="paint5_linear_136_123" x1="17.4352" y1="19.0445" x2="62.1207" y2="19.0445" gradientUnits="userSpaceOnUse">
<stop stop-color="#E8E7E5"/>
<stop offset="1" stop-color="white"/>
</linearGradient>
<clipPath id="clip0_136_123">
<rect width="80" height="80" fill="white"/>
</clipPath>
<clipPath id="clip1_136_123">
<rect width="71.1114" height="80" fill="white" transform="translate(4.44434)"/>
</clipPath>
</defs>
</svg>
