<svg width="20" height="21" viewBox="0 0 20 21" fill="none" xmlns="http://www.w3.org/2000/svg">
<path d="M12.5 19.0833V15.75C12.6159 14.706 12.3166 13.6584 11.6667 12.8333C14.1667 12.8333 16.6667 11.1666 16.6667 8.24996C16.7333 7.20829 16.4417 6.18329 15.8333 5.33329C16.0667 4.37496 16.0667 3.37496 15.8333 2.41663C15.8333 2.41663 15 2.41663 13.3333 3.66663C11.1333 3.24996 8.86666 3.24996 6.66666 3.66663C4.99999 2.41663 4.16666 2.41663 4.16666 2.41663C3.91666 3.37496 3.91666 4.37496 4.16666 5.33329C3.55988 6.17986 3.26538 7.21061 3.33332 8.24996C3.33332 11.1666 5.83332 12.8333 8.33332 12.8333C8.00832 13.2416 7.76666 13.7083 7.62499 14.2083C7.48332 14.7083 7.44166 15.2333 7.49999 15.75V19.0833" stroke="#9CA3AF" stroke-width="1.66667" stroke-linecap="round" stroke-linejoin="round"/>
<path d="M7.49999 15.75C3.74166 17.4167 3.33332 14.0834 1.66666 14.0834" stroke="#9CA3AF" stroke-width="1.66667" stroke-linecap="round" stroke-linejoin="round"/>
</svg>
