<svg width="20" height="21" viewBox="0 0 20 21" fill="none" xmlns="http://www.w3.org/2000/svg">
<path d="M14.1667 2.41663H5.83334C3.53215 2.41663 1.66667 4.28211 1.66667 6.58329V14.9166C1.66667 17.2178 3.53215 19.0833 5.83334 19.0833H14.1667C16.4679 19.0833 18.3333 17.2178 18.3333 14.9166V6.58329C18.3333 4.28211 16.4679 2.41663 14.1667 2.41663Z" stroke="#9CA3AF" stroke-width="1.66667" stroke-linecap="round" stroke-linejoin="round"/>
<path d="M13.3333 10.225C13.4362 10.9185 13.3177 11.6269 12.9948 12.2492C12.6719 12.8715 12.161 13.3762 11.5347 13.6914C10.9084 14.0066 10.1987 14.1163 9.50648 14.005C8.81427 13.8936 8.1748 13.5667 7.67903 13.071C7.18326 12.5752 6.85644 11.9357 6.74505 11.2435C6.63366 10.5513 6.74338 9.84159 7.0586 9.21532C7.37382 8.58905 7.87848 8.07812 8.50082 7.75521C9.12315 7.43229 9.83146 7.31383 10.525 7.41667C11.2324 7.52158 11.8874 7.85123 12.3931 8.35693C12.8988 8.86263 13.2284 9.51757 13.3333 10.225Z" stroke="#9CA3AF" stroke-width="1.66667" stroke-linecap="round" stroke-linejoin="round"/>
<path d="M14.5833 6.16663H14.5917" stroke="#9CA3AF" stroke-width="1.66667" stroke-linecap="round" stroke-linejoin="round"/>
</svg>
