<svg width="28" height="40" viewBox="0 0 28 40" fill="none" xmlns="http://www.w3.org/2000/svg">
<g opacity="0.5">
<path d="M21 15.3335C22.933 15.3335 24.5 13.7665 24.5 11.8335C24.5 9.9005 22.933 8.3335 21 8.3335C19.067 8.3335 17.5 9.9005 17.5 11.8335C17.5 13.7665 19.067 15.3335 21 15.3335Z" stroke="#F999C3" stroke-width="2.33333" stroke-linecap="round" stroke-linejoin="round"/>
<path d="M7 23.5C8.933 23.5 10.5 21.933 10.5 20C10.5 18.067 8.933 16.5 7 16.5C5.067 16.5 3.5 18.067 3.5 20C3.5 21.933 5.067 23.5 7 23.5Z" stroke="#F999C3" stroke-width="2.33333" stroke-linecap="round" stroke-linejoin="round"/>
<path d="M21 31.6665C22.933 31.6665 24.5 30.0995 24.5 28.1665C24.5 26.2335 22.933 24.6665 21 24.6665C19.067 24.6665 17.5 26.2335 17.5 28.1665C17.5 30.0995 19.067 31.6665 21 31.6665Z" stroke="#F999C3" stroke-width="2.33333" stroke-linecap="round" stroke-linejoin="round"/>
<path d="M10.0217 21.7617L17.99 26.4051" stroke="#F999C3" stroke-width="2.33333" stroke-linecap="round" stroke-linejoin="round"/>
<path d="M17.9783 13.5952L10.0217 18.2385" stroke="#F999C3" stroke-width="2.33333" stroke-linecap="round" stroke-linejoin="round"/>
</g>
</svg>
