<svg width="80" height="80" viewBox="0 0 80 80" fill="none" xmlns="http://www.w3.org/2000/svg">
<g clip-path="url(#clip0_136_97)">
<g clip-path="url(#clip1_136_97)">
<path d="M8.825 16.4563C8.675 12.1219 12.0516 8.125 16.6156 8.125H63.3906C67.9547 8.125 71.3313 12.1219 71.1813 16.4563C71.0359 20.6203 71.2234 26.0125 72.5812 30.4109C73.9437 34.8219 76.2391 37.6109 80 37.9688V42.0312C76.2391 42.3891 73.9437 45.1781 72.5812 49.5891C71.2234 53.9875 71.0359 59.3797 71.1813 63.5437C71.3313 67.8781 67.9547 71.875 63.3906 71.875H16.6156C12.0516 71.875 8.675 67.8781 8.825 63.5437C8.97031 59.3797 8.78125 53.9875 7.425 49.5891C6.0625 45.1781 3.76094 42.3891 0 42.0312V37.9688C3.76094 37.6109 6.0625 34.8219 7.425 30.4109C8.78125 26.0125 8.97031 20.6203 8.825 16.4563Z" fill="url(#paint0_linear_136_97)"/>
<path fill-rule="evenodd" clip-rule="evenodd" d="M53.5781 47.3583C53.5781 53.3271 49.125 56.9458 41.7344 56.9458H27.7969V23.0396H41.6625C47.825 23.0396 51.8687 26.3755 51.8687 31.4974C51.8687 35.0927 49.15 38.313 45.6828 38.8755V39.0646C50.4016 39.5817 53.5781 42.8474 53.5781 47.3583ZM33.1891 52.6458V41.4849H40.3141C45.4172 41.4849 48.0656 43.3646 48.0656 47.0302C48.0656 50.6958 45.4906 52.6458 40.6281 52.6458H33.1891ZM33.1891 27.3396H40.3625C44.2625 27.3396 46.4766 29.0786 46.4766 32.227C46.4766 35.5864 43.9016 37.4661 39.2313 37.4661H33.1891V27.3396Z" fill="white"/>
</g>
</g>
<defs>
<linearGradient id="paint0_linear_136_97" x1="11.875" y1="9.6875" x2="81.7188" y2="65.1562" gradientUnits="userSpaceOnUse">
<stop stop-color="#9013FE"/>
<stop offset="1" stop-color="#6610F2"/>
</linearGradient>
<clipPath id="clip0_136_97">
<rect width="80" height="80" fill="white"/>
</clipPath>
<clipPath id="clip1_136_97">
<rect width="80" height="63.75" fill="white" transform="translate(0 8.125)"/>
</clipPath>
</defs>
</svg>
