<svg width="80" height="80" viewBox="0 0 80 80" fill="none" xmlns="http://www.w3.org/2000/svg">
<g clip-path="url(#clip0_136_179)">
<g clip-path="url(#clip1_136_179)">
<path fill-rule="evenodd" clip-rule="evenodd" d="M0 0H80V80H0V0Z" fill="#F7DF1E"/>
<path fill-rule="evenodd" clip-rule="evenodd" d="M21.0352 66.8554L27.1549 63.151C28.3333 65.2473 29.4076 67.0182 31.9857 67.0182C34.4531 67.0182 36.0156 66.0546 36.0156 62.2916V36.7252H43.5352V62.3958C43.5352 70.1822 38.9714 73.7239 32.3112 73.7239C26.2956 73.7239 22.806 70.6119 21.0352 66.8554ZM47.6172 66.0481L53.737 62.5064C55.3516 65.1366 57.4414 67.0702 61.1458 67.0702C64.2578 67.0702 66.25 65.5142 66.25 63.3658C66.25 60.7877 64.2122 59.8762 60.7747 58.3723L58.8932 57.565C53.47 55.2538 49.8698 52.3567 49.8698 46.2369C49.8698 40.5989 54.1667 36.302 60.8789 36.302C65.6576 36.302 69.0951 37.9687 71.5625 42.3176L65.7096 46.0741C64.4206 43.7629 63.0273 42.8515 60.8789 42.8515C58.6784 42.8515 57.2786 44.2447 57.2786 46.0741C57.2786 48.3267 58.6719 49.2447 61.8945 50.6379L63.776 51.4452C70.1693 54.1861 73.763 56.9791 73.763 63.2616C73.763 70.026 68.444 73.7304 61.3021 73.7304C54.3294 73.7304 49.8177 70.3971 47.6172 66.0481Z" fill="black"/>
</g>
</g>
<defs>
<clipPath id="clip0_136_179">
<rect width="80" height="80" fill="white"/>
</clipPath>
<clipPath id="clip1_136_179">
<rect width="80" height="80" fill="white"/>
</clipPath>
</defs>
</svg>
