<svg width="20" height="21" viewBox="0 0 20 21" fill="none" xmlns="http://www.w3.org/2000/svg">
<path d="M13.3333 7.41663C14.6594 7.41663 15.9312 7.94341 16.8689 8.88109C17.8065 9.81877 18.3333 11.0905 18.3333 12.4166V18.25H15V12.4166C15 11.9746 14.8244 11.5507 14.5118 11.2381C14.1993 10.9256 13.7754 10.75 13.3333 10.75C12.8913 10.75 12.4674 10.9256 12.1548 11.2381C11.8423 11.5507 11.6667 11.9746 11.6667 12.4166V18.25H8.33333V12.4166C8.33333 11.0905 8.86011 9.81877 9.79779 8.88109C10.7355 7.94341 12.0072 7.41663 13.3333 7.41663Z" stroke="#9CA3AF" stroke-width="1.66667" stroke-linecap="round" stroke-linejoin="round"/>
<path d="M5.00001 8.25H1.66667V18.25H5.00001V8.25Z" stroke="#9CA3AF" stroke-width="1.66667" stroke-linecap="round" stroke-linejoin="round"/>
<path d="M3.33334 5.74996C4.25381 5.74996 5.00001 5.00377 5.00001 4.08329C5.00001 3.16282 4.25381 2.41663 3.33334 2.41663C2.41286 2.41663 1.66667 3.16282 1.66667 4.08329C1.66667 5.00377 2.41286 5.74996 3.33334 5.74996Z" stroke="#9CA3AF" stroke-width="1.66667" stroke-linecap="round" stroke-linejoin="round"/>
</svg>
